<?xml version="1.0" encoding="UTF-8" standalone="no"?>
<!DOCTYPE svg PUBLIC "-//W3C//DTD SVG 1.1//EN" "http://www.w3.org/Graphics/SVG/1.1/DTD/svg11.dtd">
<svg version="1.1" xmlns="http://www.w3.org/2000/svg" xmlns:xlink="http://www.w3.org/1999/xlink" preserveAspectRatio="xMidYMid meet" viewBox="0 0 682 682" width="682" height="682"><defs><path d="M347.29 49.54L350.39 49.86L353.44 50.29L356.46 50.85L359.44 51.52L362.37 52.31L365.25 53.21L368.09 54.22L370.87 55.33L373.6 56.55L376.27 57.87L378.88 59.29L381.43 60.81L383.92 62.42L386.33 64.12L388.68 65.92L390.96 67.8L393.16 69.76L395.29 71.81L397.33 73.93L399.3 76.14L401.18 78.41L402.97 80.76L404.67 83.18L406.29 85.67L407.8 88.22L409.22 90.83L410.55 93.5L411.76 96.23L412.88 99.01L413.89 101.85L414.79 104.73L415.57 107.66L416.25 110.64L416.8 113.66L417.24 116.71L417.56 119.81L417.75 122.94L417.81 126.1L417.81 126.89L417.79 127.68L417.77 128.47L417.75 129.26L417.71 130.04L417.67 130.82L417.62 131.6L417.56 132.38L417.49 133.16L417.41 133.93L417.33 134.7L417.24 135.47L417.14 136.24L417.04 137.01L416.93 137.77L416.81 138.53L416.68 139.29L416.54 140.04L416.4 140.79L416.25 141.54L416.1 142.29L415.93 143.04L415.76 143.78L415.58 144.52L415.4 145.25L415.2 145.99L415 146.72L414.8 147.44L414.58 148.17L414.36 148.89L414.13 149.61L413.9 150.33L413.66 151.04L413.41 151.75L413.15 152.45L412.89 153.16L412.62 153.86L412.35 154.55L412.07 155.25L411.78 155.94L521.04 265.2L682 265.2L682 633.47L0 633.47L0 265.2L160.96 265.2L270.22 155.94L269.93 155.25L269.65 154.55L269.38 153.86L269.11 153.16L268.84 152.45L268.59 151.75L268.34 151.04L268.1 150.33L267.87 149.61L267.64 148.89L267.42 148.17L267.2 147.44L267 146.72L266.8 145.99L266.6 145.25L266.42 144.52L266.24 143.78L266.07 143.04L265.9 142.29L265.74 141.54L265.59 140.79L265.45 140.04L265.32 139.29L265.19 138.53L265.07 137.77L264.96 137.01L264.85 136.24L264.75 135.47L264.66 134.7L264.58 133.93L264.51 133.16L264.44 132.38L264.38 131.6L264.33 130.82L264.28 130.04L264.25 129.26L264.22 128.47L264.2 127.68L264.19 126.89L264.18 126.1L264.25 122.94L264.44 119.81L264.75 116.71L265.19 113.66L265.75 110.64L266.42 107.66L267.21 104.73L268.11 101.85L269.12 99.01L270.23 96.23L271.45 93.5L272.77 90.83L274.19 88.22L275.71 85.67L277.32 83.18L279.03 80.76L280.82 78.41L282.7 76.14L284.66 73.93L286.71 71.81L288.84 69.76L291.04 67.8L293.31 65.92L295.66 64.12L298.08 62.42L300.57 60.81L303.12 59.29L305.73 57.87L308.4 56.55L311.13 55.33L313.91 54.22L316.75 53.21L319.63 52.31L322.56 51.52L325.54 50.85L328.56 50.29L331.61 49.86L334.71 49.54L337.84 49.35L341 49.29L344.16 49.35L347.29 49.54ZM39.96 593.51L642.04 593.51L642.04 305.16L39.96 305.16L39.96 593.51ZM385 189.03L384.01 189.71L383.01 190.38L382 191.03L380.97 191.67L379.94 192.29L378.9 192.9L377.84 193.49L376.78 194.06L375.7 194.62L374.62 195.16L373.53 195.68L372.42 196.19L371.31 196.68L370.19 197.15L369.06 197.61L367.92 198.04L366.78 198.46L365.62 198.87L364.46 199.25L363.29 199.62L362.11 199.97L360.92 200.3L359.72 200.61L358.52 200.9L357.31 201.17L356.09 201.43L354.87 201.66L353.64 201.88L352.4 202.07L351.16 202.25L349.91 202.4L348.65 202.54L347.39 202.65L346.12 202.75L344.85 202.82L343.57 202.87L342.29 202.91L341 202.92L339.71 202.91L338.43 202.87L337.15 202.82L335.88 202.75L334.61 202.65L333.35 202.54L332.09 202.4L330.84 202.25L329.6 202.07L328.36 201.88L327.13 201.66L325.91 201.43L324.69 201.17L323.48 200.9L322.28 200.61L321.08 200.3L319.9 199.97L318.72 199.62L317.54 199.25L316.38 198.87L315.23 198.46L314.08 198.04L312.94 197.61L311.81 197.15L310.69 196.68L309.58 196.19L308.47 195.68L307.38 195.16L306.3 194.62L305.22 194.06L304.16 193.49L303.1 192.9L302.06 192.29L301.03 191.67L300 191.03L298.99 190.38L297.99 189.71L297 189.03L296.02 188.33L295.06 187.62L217.47 265.2L464.53 265.2L386.94 187.62L385.98 188.33L385 189.03ZM337.98 89.37L336.5 89.52L335.03 89.73L333.58 90L332.15 90.32L330.75 90.7L329.36 91.13L328 91.61L326.67 92.15L325.36 92.73L324.08 93.37L322.83 94.05L321.6 94.78L320.41 95.55L319.25 96.37L318.12 97.23L317.03 98.13L315.97 99.07L314.95 100.05L313.97 101.07L313.03 102.13L312.13 103.22L311.27 104.35L310.45 105.51L309.68 106.7L308.95 107.92L308.27 109.18L307.63 110.46L307.05 111.77L306.51 113.1L306.03 114.46L305.6 115.85L305.22 117.25L304.9 118.68L304.63 120.13L304.42 121.6L304.27 123.08L304.18 124.58L304.15 126.1L304.18 127.62L304.27 129.12L304.42 130.6L304.63 132.07L304.9 133.52L305.22 134.95L305.6 136.35L306.03 137.74L306.51 139.1L307.05 140.43L307.63 141.74L308.26 143.02L308.95 144.27L309.67 145.5L310.45 146.69L311.26 147.85L312.13 148.98L313.03 150.07L313.97 151.13L314.95 152.15L315.97 153.13L317.03 154.07L318.12 154.97L319.25 155.83L320.41 156.65L321.6 157.43L322.82 158.15L324.08 158.83L325.36 159.47L326.67 160.05L328 160.59L329.36 161.07L330.75 161.5L332.15 161.88L333.58 162.21L335.03 162.47L336.5 162.68L337.98 162.83L339.48 162.92L341 162.96L342.52 162.92L344.02 162.83L345.5 162.68L346.97 162.47L348.42 162.21L349.84 161.88L351.25 161.5L352.63 161.07L353.99 160.59L355.33 160.05L356.64 159.47L357.92 158.83L359.17 158.15L360.4 157.43L361.59 156.65L362.75 155.83L363.88 154.97L364.97 154.07L366.02 153.13L367.04 152.15L368.03 151.13L368.97 150.07L369.87 148.98L370.73 147.85L371.55 146.69L372.32 145.5L373.05 144.27L373.73 143.02L374.36 141.74L374.95 140.43L375.48 139.1L375.97 137.74L376.4 136.35L376.78 134.95L377.1 133.52L377.37 132.07L377.58 130.6L377.73 129.12L377.82 127.62L377.85 126.1L377.82 124.58L377.73 123.08L377.58 121.6L377.37 120.13L377.1 118.68L376.78 117.25L376.4 115.85L375.97 114.46L375.48 113.1L374.95 111.77L374.36 110.46L373.73 109.18L373.05 107.92L372.32 106.7L371.55 105.51L370.73 104.35L369.87 103.22L368.97 102.13L368.03 101.07L367.04 100.05L366.02 99.07L364.97 98.13L363.88 97.23L362.75 96.37L361.59 95.55L360.4 94.78L359.17 94.05L357.92 93.37L356.64 92.73L355.33 92.15L353.99 91.61L352.63 91.13L351.25 90.7L349.84 90.32L348.42 90L346.97 89.73L345.5 89.52L344.02 89.37L342.52 89.28L341 89.25L339.48 89.28L337.98 89.37Z" id="eCtPeY8DY"></path><path d="M148.82 385.76L150.04 385.79L151.27 385.84L152.49 385.9L153.72 385.97L154.94 386.05L156.16 386.15L157.38 386.26L158.6 386.38L159.82 386.52L161.04 386.67L162.25 386.84L163.45 387.01L164.66 387.2L165.85 387.41L167.05 387.62L168.24 387.85L169.42 388.1L170.59 388.35L171.76 388.62L172.92 388.9L174.08 389.2L175.22 389.51L176.36 389.83L177.49 390.17L178.61 390.52L179.71 390.88L180.81 391.26L181.9 391.65L182.98 392.05L184.04 392.47L185.09 392.9L186.13 393.35L187.16 393.8L188.18 394.27L189.18 394.76L190.16 395.26L191.13 395.77L192.09 396.29L179.79 425.91L178.9 425.46L178.01 425.02L177.12 424.6L176.23 424.18L175.34 423.78L174.46 423.39L173.58 423.01L172.71 422.64L171.83 422.29L170.96 421.94L170.09 421.61L169.22 421.29L168.36 420.98L167.5 420.68L166.64 420.4L165.79 420.12L164.93 419.86L164.08 419.61L163.23 419.36L162.39 419.13L161.54 418.92L160.7 418.71L159.87 418.51L159.03 418.33L158.2 418.16L157.37 417.99L156.54 417.84L155.72 417.7L154.9 417.58L154.08 417.46L153.26 417.35L152.44 417.26L151.63 417.18L150.82 417.1L150.02 417.04L149.21 416.99L148.41 416.95L147.61 416.93L146.82 416.91L146.02 416.9L145.14 416.91L144.29 416.93L143.47 416.96L142.68 417.01L141.92 417.06L141.18 417.13L140.47 417.21L139.8 417.3L139.14 417.4L138.52 417.51L137.92 417.63L137.35 417.77L136.8 417.91L136.28 418.06L135.78 418.22L135.31 418.39L134.87 418.57L134.44 418.76L134.04 418.95L133.66 419.16L133.31 419.37L132.97 419.59L132.66 419.81L132.37 420.05L132.1 420.29L131.85 420.53L131.62 420.79L131.41 421.05L131.22 421.31L131.05 421.58L130.89 421.86L130.76 422.14L130.64 422.42L130.54 422.71L130.45 423L130.38 423.3L130.33 423.6L130.29 423.91L130.27 424.21L130.26 424.52L130.39 425.56L130.75 426.52L131.34 427.38L132.14 428.17L133.14 428.89L134.33 429.55L135.7 430.16L137.23 430.72L138.91 431.24L140.73 431.74L142.68 432.21L144.74 432.67L146.9 433.12L149.15 433.58L151.47 434.04L153.85 434.52L156.29 435.03L158.76 435.57L161.26 436.15L163.77 436.78L166.28 437.46L168.78 438.21L171.26 439.03L173.69 439.93L176.08 440.92L178.4 442.01L180.65 443.2L182.81 444.5L184.86 445.92L186.81 447.46L188.63 449.14L190.31 450.97L191.84 452.94L193.21 455.07L194.4 457.37L195.4 459.84L196.21 462.5L196.8 465.34L197.16 468.38L197.28 471.63L197.25 473.28L197.14 474.92L196.96 476.55L196.72 478.16L196.4 479.75L196.01 481.32L195.55 482.86L195.02 484.39L194.42 485.89L193.75 487.36L193 488.81L192.19 490.23L191.31 491.62L190.35 492.97L189.33 494.3L188.23 495.59L187.07 496.84L185.83 498.06L184.52 499.24L183.15 500.37L181.7 501.47L180.18 502.52L178.59 503.53L176.94 504.49L175.21 505.41L173.41 506.27L171.54 507.09L169.6 507.86L167.59 508.57L165.5 509.23L163.35 509.83L161.13 510.37L158.84 510.86L156.48 511.28L154.05 511.65L151.54 511.95L148.97 512.18L146.33 512.36L143.61 512.46L140.83 512.49L139.31 512.48L137.79 512.46L136.27 512.41L134.76 512.35L133.24 512.26L131.73 512.16L130.22 512.05L128.72 511.91L127.23 511.76L125.74 511.59L124.25 511.41L122.78 511.21L121.31 510.99L119.86 510.76L118.41 510.51L116.98 510.25L115.56 509.97L114.15 509.68L112.75 509.37L111.37 509.05L110 508.72L108.65 508.37L107.32 508.01L106.01 507.63L104.71 507.24L103.43 506.84L102.18 506.43L100.94 506L99.72 505.57L98.53 505.12L97.36 504.65L96.22 504.18L95.1 503.7L94 503.21L92.93 502.7L91.89 502.19L90.88 501.66L89.89 501.13L88.94 500.58L88.01 500.03L101.17 470.24L102.04 470.75L102.91 471.24L103.81 471.72L104.71 472.19L105.63 472.66L106.55 473.11L107.49 473.56L108.44 473.99L109.4 474.41L110.37 474.82L111.35 475.23L112.33 475.62L113.33 475.99L114.33 476.36L115.34 476.72L116.35 477.06L117.37 477.39L118.4 477.71L119.43 478.02L120.46 478.32L121.5 478.6L122.54 478.87L123.58 479.13L124.62 479.37L125.67 479.6L126.72 479.82L127.77 480.02L128.81 480.21L129.86 480.38L130.91 480.54L131.95 480.69L132.99 480.82L134.03 480.94L135.06 481.04L136.1 481.13L137.12 481.2L138.14 481.25L139.16 481.29L140.17 481.32L141.17 481.33L142.03 481.32L142.86 481.31L143.66 481.29L144.44 481.25L145.18 481.21L145.9 481.17L146.6 481.11L147.27 481.04L147.91 480.97L148.53 480.88L149.13 480.79L149.7 480.69L150.24 480.58L150.76 480.46L151.26 480.34L151.73 480.21L152.19 480.07L152.62 479.92L153.02 479.76L153.41 479.59L153.77 479.42L154.11 479.24L154.43 479.05L154.73 478.86L155.01 478.65L155.27 478.44L155.5 478.22L155.72 478L155.92 477.77L156.1 477.53L156.27 477.28L156.41 477.03L156.54 476.76L156.64 476.5L156.73 476.22L156.81 475.94L156.86 475.65L156.9 475.35L156.93 475.05L156.94 474.74L156.81 473.65L156.45 472.65L155.86 471.74L155.06 470.91L154.06 470.15L152.86 469.46L151.5 468.82L149.97 468.22L148.28 467.67L146.46 467.15L144.52 466.65L142.46 466.17L140.3 465.69L138.05 465.22L135.73 464.73L133.34 464.23L130.91 463.71L128.44 463.15L125.94 462.55L123.43 461.91L120.92 461.21L118.42 460.44L115.94 459.6L113.51 458.68L111.12 457.68L108.8 456.58L106.55 455.37L104.39 454.05L102.33 452.62L100.39 451.05L98.57 449.35L96.89 447.5L95.36 445.51L93.99 443.35L92.8 441.02L91.79 438.52L90.99 435.84L90.4 432.96L90.04 429.89L89.92 426.6L89.95 424.92L90.06 423.26L90.24 421.61L90.48 419.99L90.8 418.38L91.19 416.8L91.65 415.24L92.18 413.71L92.78 412.2L93.45 410.72L94.2 409.27L95.01 407.85L95.89 406.46L96.85 405.1L97.87 403.78L98.97 402.49L100.13 401.24L101.37 400.03L102.68 398.86L104.05 397.73L105.5 396.64L107.02 395.59L108.61 394.59L110.27 393.63L112 392.73L113.8 391.87L115.67 391.06L117.61 390.31L119.62 389.6L121.7 388.95L123.85 388.36L126.07 387.82L128.36 387.34L130.73 386.92L133.16 386.57L135.66 386.27L138.23 386.04L140.88 385.87L143.59 385.77L146.37 385.73L147.59 385.74L148.82 385.76Z" id="h5tYRj6ze2"></path><path d="M278.79 385.93L281.65 386.18L284.46 386.52L287.23 386.95L289.94 387.48L292.61 388.09L295.23 388.8L297.79 389.59L300.3 390.47L302.75 391.44L305.14 392.48L307.47 393.61L309.74 394.82L311.95 396.11L314.09 397.47L316.16 398.91L318.16 400.42L320.1 402L321.96 403.66L323.75 405.38L325.46 407.17L327.09 409.03L328.65 410.94L330.12 412.93L331.51 414.97L332.82 417.07L334.04 419.23L335.17 421.45L336.22 423.72L337.17 426.05L338.03 428.43L338.8 430.85L339.46 433.33L340.03 435.85L340.5 438.42L340.87 441.03L341.14 443.68L341.3 446.38L341.35 449.11L341.3 451.85L341.14 454.54L340.87 457.2L340.5 459.81L340.03 462.38L339.46 464.9L338.8 467.38L338.03 469.8L337.17 472.18L336.22 474.51L335.17 476.78L334.04 478.99L332.82 481.16L331.51 483.26L330.12 485.3L328.65 487.28L327.09 489.2L325.46 491.06L323.75 492.85L321.96 494.57L320.1 496.22L318.16 497.81L316.16 499.32L314.09 500.76L311.95 502.12L309.74 503.41L307.47 504.61L305.14 505.74L302.75 506.79L300.3 507.75L297.79 508.63L295.23 509.43L292.61 510.13L289.94 510.75L287.23 511.28L284.46 511.71L281.65 512.05L278.79 512.3L275.89 512.44L272.95 512.49L270.01 512.44L267.11 512.3L264.25 512.05L261.44 511.71L258.68 511.28L255.96 510.75L253.29 510.13L250.68 509.43L248.11 508.63L245.61 507.75L243.16 506.79L240.77 505.74L238.43 504.61L236.16 503.41L233.96 502.12L231.82 500.76L229.74 499.32L227.74 497.81L225.81 496.22L223.95 494.57L222.16 492.85L220.45 491.06L218.81 489.2L217.26 487.28L215.78 485.3L214.39 483.26L213.08 481.16L211.86 478.99L210.73 476.78L209.69 474.51L208.73 472.18L207.87 469.8L207.11 467.38L206.44 464.9L205.87 462.38L205.4 459.81L205.03 457.2L204.76 454.54L204.6 451.85L204.55 449.11L204.6 446.38L204.76 443.68L205.03 441.03L205.4 438.42L205.87 435.85L206.44 433.33L207.11 430.85L207.87 428.43L208.73 426.05L209.69 423.72L210.73 421.45L211.86 419.23L213.08 417.07L214.39 414.97L215.78 412.93L217.26 410.94L218.81 409.03L220.45 407.17L222.16 405.38L223.95 403.66L225.81 402L227.74 400.42L229.74 398.91L231.82 397.47L233.96 396.11L236.16 394.82L238.43 393.61L240.77 392.48L243.16 391.44L245.61 390.47L248.11 389.59L250.68 388.8L253.29 388.09L255.96 387.48L258.68 386.95L261.44 386.52L264.25 386.18L267.11 385.93L270.01 385.78L272.95 385.73L275.89 385.78L278.79 385.93ZM270.47 418.91L269.25 419.05L268.05 419.23L266.87 419.46L265.71 419.74L264.57 420.08L263.45 420.46L262.35 420.89L261.28 421.37L260.23 421.9L259.21 422.47L258.22 423.09L257.25 423.76L256.32 424.47L255.42 425.23L254.55 426.03L253.71 426.88L252.91 427.77L252.14 428.71L251.41 429.68L250.73 430.7L250.08 431.76L249.47 432.87L248.9 434.01L248.37 435.19L247.89 436.41L247.46 437.68L247.07 438.98L246.73 440.31L246.44 441.69L246.2 443.1L246.01 444.55L245.88 446.04L245.79 447.56L245.76 449.11L245.79 450.67L245.88 452.19L246.01 453.67L246.2 455.12L246.44 456.54L246.73 457.91L247.07 459.25L247.46 460.55L247.89 461.81L248.37 463.03L248.9 464.22L249.47 465.36L250.08 466.46L250.73 467.52L251.41 468.54L252.14 469.52L252.91 470.45L253.71 471.34L254.55 472.19L255.42 472.99L256.32 473.75L257.25 474.47L258.22 475.13L259.21 475.76L260.23 476.33L261.28 476.86L262.35 477.34L263.45 477.77L264.57 478.15L265.71 478.48L266.87 478.77L268.05 479L269.25 479.18L270.47 479.31L271.7 479.39L272.95 479.42L274.2 479.39L275.43 479.31L276.65 479.18L277.85 479L279.04 478.77L280.2 478.48L281.34 478.15L282.46 477.77L283.56 477.34L284.63 476.86L285.68 476.33L286.7 475.76L287.69 475.13L288.65 474.47L289.59 473.75L290.49 472.99L291.36 472.19L292.2 471.34L293 470.45L293.76 469.52L294.49 468.54L295.18 467.52L295.83 466.46L296.44 465.36L297.01 464.22L297.53 463.03L298.01 461.81L298.44 460.55L298.83 459.25L299.17 457.91L299.46 456.54L299.7 455.12L299.89 453.67L300.03 452.19L300.11 450.67L300.14 449.11L300.11 447.56L300.03 446.04L299.89 444.55L299.7 443.1L299.46 441.69L299.17 440.31L298.83 438.98L298.44 437.68L298.01 436.41L297.53 435.19L297.01 434.01L296.44 432.87L295.83 431.76L295.18 430.7L294.49 429.68L293.76 428.71L293 427.77L292.2 426.88L291.36 426.03L290.49 425.23L289.59 424.47L288.65 423.76L287.69 423.09L286.7 422.47L285.68 421.9L284.63 421.37L283.56 420.89L282.46 420.46L281.34 420.08L280.2 419.74L279.04 419.46L277.85 419.23L276.65 419.05L275.43 418.91L274.2 418.84L272.95 418.81L271.7 418.84L270.47 418.91Z" id="daUXxjD8T"></path><path d="M451.83 478.03L451.83 509.73L356.24 509.73L356.24 388.51L397.11 388.51L397.11 478.03L451.83 478.03Z" id="aAF4GOMf1"></path><path d="M528.81 388.68L531.73 388.89L534.59 389.19L537.4 389.57L540.16 390.03L542.86 390.58L545.5 391.2L548.09 391.91L550.61 392.69L553.07 393.55L555.47 394.49L557.81 395.51L560.08 396.61L562.28 397.77L564.41 399.02L566.47 400.33L568.46 401.72L570.38 403.18L572.22 404.72L573.99 406.32L575.68 407.99L577.29 409.74L578.82 411.55L580.27 413.42L581.64 415.37L582.92 417.38L584.11 419.45L585.22 421.59L586.24 423.79L587.17 426.05L588.01 428.38L588.75 430.77L589.4 433.21L589.95 435.72L590.41 438.28L590.77 440.91L591.02 443.59L591.18 446.32L591.23 449.11L591.18 451.9L591.02 454.64L590.77 457.32L590.41 459.94L589.95 462.51L589.4 465.01L588.75 467.46L588.01 469.85L587.17 472.17L586.24 474.44L585.22 476.64L584.11 478.78L582.92 480.85L581.64 482.86L580.27 484.8L578.82 486.68L577.29 488.49L575.68 490.23L573.99 491.91L572.22 493.51L570.38 495.04L568.46 496.5L566.47 497.89L564.41 499.21L562.28 500.45L560.08 501.62L557.81 502.71L555.47 503.73L553.07 504.67L550.61 505.53L548.09 506.32L545.5 507.02L542.86 507.65L540.16 508.19L537.4 508.66L534.59 509.04L531.73 509.34L528.81 509.55L525.84 509.68L522.83 509.72L463.08 509.72L463.08 388.51L522.83 388.51L525.84 388.55L528.81 388.68ZM503.95 477.86L521.09 477.86L522.51 477.84L523.9 477.77L525.27 477.65L526.6 477.49L527.91 477.27L529.19 477.02L530.44 476.72L531.66 476.37L532.85 475.97L534 475.54L535.12 475.05L536.21 474.53L537.27 473.95L538.28 473.34L539.27 472.68L540.21 471.97L541.12 471.23L541.98 470.44L542.81 469.6L543.6 468.73L544.34 467.81L545.05 466.85L545.71 465.85L546.33 464.8L546.9 463.72L547.43 462.59L547.91 461.42L548.34 460.21L548.73 458.96L549.06 457.68L549.35 456.35L549.59 454.98L549.77 453.57L549.91 452.12L549.99 450.64L550.01 449.11L549.99 447.59L549.91 446.1L549.77 444.66L549.59 443.25L549.35 441.88L549.06 440.55L548.73 439.26L548.34 438.01L547.91 436.81L547.43 435.64L546.9 434.51L546.33 433.43L545.71 432.38L545.05 431.38L544.34 430.42L543.6 429.5L542.81 428.63L541.98 427.79L541.12 427L540.21 426.26L539.27 425.55L538.28 424.89L537.27 424.28L536.21 423.7L535.12 423.18L534 422.69L532.85 422.26L531.66 421.86L530.44 421.51L529.19 421.21L527.91 420.96L526.6 420.75L525.27 420.58L523.9 420.46L522.51 420.39L521.09 420.37L503.95 420.37L503.95 477.86Z" id="a21rj4b5lN"></path></defs><g><g><g><use xlink:href="#eCtPeY8DY" opacity="1" fill="#c90808" fill-opacity="1"></use><g><use xlink:href="#eCtPeY8DY" opacity="1" fill-opacity="0" stroke="#000000" stroke-width="1" stroke-opacity="0"></use></g></g><g><use xlink:href="#h5tYRj6ze2" opacity="1" fill="#c90808" fill-opacity="1"></use><g><use xlink:href="#h5tYRj6ze2" opacity="1" fill-opacity="0" stroke="#000000" stroke-width="1" stroke-opacity="0"></use></g></g><g><use xlink:href="#daUXxjD8T" opacity="1" fill="#c90808" fill-opacity="1"></use><g><use xlink:href="#daUXxjD8T" opacity="1" fill-opacity="0" stroke="#000000" stroke-width="1" stroke-opacity="0"></use></g></g><g><use xlink:href="#aAF4GOMf1" opacity="1" fill="#c90808" fill-opacity="1"></use><g><use xlink:href="#aAF4GOMf1" opacity="1" fill-opacity="0" stroke="#000000" stroke-width="1" stroke-opacity="0"></use></g></g><g><use xlink:href="#a21rj4b5lN" opacity="1" fill="#c90808" fill-opacity="1"></use><g><use xlink:href="#a21rj4b5lN" opacity="1" fill-opacity="0" stroke="#000000" stroke-width="1" stroke-opacity="0"></use></g></g></g></g></svg>