<?xml version="1.0" encoding="UTF-8" standalone="no"?>
<!DOCTYPE svg PUBLIC "-//W3C//DTD SVG 1.1//EN" "http://www.w3.org/Graphics/SVG/1.1/DTD/svg11.dtd">
<svg version="1.1" xmlns="http://www.w3.org/2000/svg" xmlns:xlink="http://www.w3.org/1999/xlink" preserveAspectRatio="xMidYMid meet" viewBox="0 0 640 640" width="640" height="640"><defs><path d="M346.13 50.23L348.65 50.48L351.14 50.84L353.6 51.29L356.03 51.84L358.42 52.48L360.77 53.22L363.08 54.04L365.34 54.95L367.57 55.94L369.75 57.02L371.87 58.18L373.95 59.41L375.98 60.73L377.95 62.11L379.86 63.58L381.72 65.11L383.51 66.71L385.25 68.38L386.91 70.11L388.52 71.9L390.05 73.76L391.51 75.68L392.9 77.65L394.21 79.67L395.45 81.75L396.61 83.88L397.68 86.06L398.68 88.28L399.59 90.55L400.41 92.86L401.14 95.21L401.78 97.6L402.33 100.02L402.78 102.48L403.14 104.98L403.4 107.5L403.55 110.05L403.61 112.62L403.6 113.4L403.59 114.18L403.56 114.95L403.53 115.72L403.49 116.49L403.43 117.26L403.37 118.02L403.3 118.78L403.22 119.54L403.14 120.3L403.04 121.05L402.93 121.8L402.82 122.55L402.69 123.29L402.56 124.03L402.42 124.77L402.27 125.51L402.11 126.24L401.94 126.97L401.76 127.69L401.58 128.41L401.39 129.13L401.18 129.85L400.98 130.56L400.76 131.27L400.53 131.98L400.3 132.68L400.06 133.37L399.81 134.07L399.55 134.76L399.28 135.45L399.01 136.13L398.73 136.81L398.44 137.48L398.14 138.15L397.84 138.82L397.53 139.48L397.21 140.14L396.88 140.79L396.55 141.44L481.08 225.97L424.57 225.97L367.79 169.19L367.18 169.48L366.57 169.76L365.95 170.03L365.33 170.3L364.7 170.56L364.07 170.82L363.44 171.07L362.8 171.31L362.17 171.54L361.52 171.77L360.88 171.99L360.23 172.2L359.58 172.41L358.93 172.61L358.27 172.8L357.61 172.99L356.95 173.17L356.28 173.34L355.61 173.5L354.94 173.66L354.27 173.81L353.59 173.95L352.91 174.09L352.23 174.22L351.55 174.34L350.86 174.45L350.17 174.56L349.48 174.66L348.78 174.75L348.09 174.83L347.39 174.91L346.69 174.97L345.98 175.03L345.28 175.08L344.57 175.13L343.86 175.17L343.15 175.19L342.43 175.21L341.72 175.23L341 175.23L340.28 175.23L339.57 175.21L338.85 175.19L338.14 175.17L337.43 175.13L336.72 175.08L336.02 175.03L335.32 174.97L334.61 174.91L333.92 174.83L333.22 174.75L332.52 174.66L331.83 174.56L331.14 174.45L330.46 174.34L329.77 174.22L329.09 174.09L328.41 173.95L327.73 173.81L327.06 173.66L326.39 173.5L325.72 173.34L325.05 173.17L324.39 172.99L323.73 172.8L323.07 172.61L322.42 172.41L321.77 172.2L321.12 171.99L320.48 171.77L319.83 171.54L319.2 171.31L318.56 171.07L317.93 170.82L317.3 170.56L316.67 170.3L316.05 170.03L315.43 169.76L314.82 169.48L314.21 169.19L257.43 225.97L200.92 225.97L285.45 141.44L285.12 140.79L284.79 140.14L284.47 139.48L284.16 138.82L283.86 138.15L283.56 137.48L283.27 136.81L282.99 136.13L282.72 135.45L282.45 134.76L282.19 134.07L281.94 133.37L281.7 132.68L281.47 131.98L281.24 131.27L281.02 130.56L280.82 129.85L280.61 129.13L280.42 128.41L280.24 127.69L280.06 126.97L279.89 126.24L279.73 125.51L279.58 124.77L279.44 124.03L279.31 123.29L279.18 122.55L279.07 121.8L278.96 121.05L278.86 120.3L278.78 119.54L278.7 118.78L278.63 118.02L278.57 117.26L278.51 116.49L278.47 115.72L278.44 114.95L278.41 114.18L278.4 113.4L278.39 112.62L278.45 110.05L278.6 107.5L278.86 104.98L279.22 102.48L279.67 100.02L280.22 97.6L280.86 95.21L281.59 92.86L282.41 90.55L283.32 88.28L284.32 86.06L285.39 83.88L286.55 81.75L287.79 79.67L289.1 77.65L290.49 75.68L291.95 73.76L293.48 71.9L295.09 70.11L296.75 68.38L298.49 66.71L300.28 65.11L302.14 63.58L304.05 62.11L306.02 60.73L308.05 59.41L310.13 58.18L312.25 57.02L314.43 55.94L316.66 54.95L318.92 54.04L321.23 53.22L323.58 52.48L325.97 51.84L328.4 51.29L330.86 50.84L333.35 50.48L335.87 50.23L338.42 50.07L341 50.02L343.58 50.07L346.13 50.23Z" id="a1hPVPbc1p"></path><path d="M275.43 419.65L276.65 419.78L277.85 419.96L279.04 420.19L280.2 420.48L281.34 420.81L282.46 421.19L283.56 421.62L284.63 422.1L285.68 422.63L286.7 423.2L287.69 423.83L288.65 424.49L289.59 425.21L290.49 425.97L291.36 426.77L292.2 427.62L293 428.51L293.76 429.44L294.49 430.42L295.18 431.44L295.83 432.5L296.44 433.6L297.01 434.74L297.53 435.93L298.01 437.15L298.44 438.41L298.83 439.71L299.17 441.05L299.46 442.42L299.7 443.84L299.89 445.28L300.03 446.77L300.11 448.29L300.14 449.85L300.11 451.4L300.03 452.92L299.89 454.41L299.7 455.86L299.46 457.27L299.17 458.65L298.83 459.98L298.44 461.28L298.01 462.55L297.53 463.77L297.01 464.95L296.44 466.09L295.83 467.2L295.18 468.26L294.49 469.28L293.76 470.25L293 471.19L292.2 472.08L291.36 472.92L290.49 473.73L289.59 474.49L288.65 475.2L287.69 475.87L286.7 476.49L285.68 477.06L284.63 477.59L283.56 478.07L282.46 478.5L281.34 478.88L280.2 479.22L279.04 479.5L277.85 479.73L276.65 479.91L275.43 480.05L274.2 480.12L272.95 480.15L271.7 480.12L270.47 480.05L269.25 479.91L268.05 479.73L266.87 479.5L265.71 479.22L264.57 478.88L263.45 478.5L262.35 478.07L261.28 477.59L260.23 477.06L259.21 476.49L258.22 475.87L257.25 475.2L256.32 474.49L255.42 473.73L254.55 472.92L253.71 472.08L252.91 471.19L252.14 470.25L251.41 469.28L250.73 468.26L250.08 467.2L249.47 466.09L248.9 464.95L248.37 463.77L247.89 462.55L247.46 461.28L247.07 459.98L246.73 458.65L246.44 457.27L246.2 455.86L246.01 454.41L245.88 452.92L245.79 451.4L245.76 449.85L245.79 448.29L245.88 446.77L246.01 445.28L246.2 443.84L246.44 442.42L246.73 441.05L247.07 439.71L247.46 438.41L247.89 437.15L248.37 435.93L248.9 434.74L249.47 433.6L250.08 432.5L250.73 431.44L251.41 430.42L252.14 429.44L252.91 428.51L253.71 427.62L254.55 426.77L255.42 425.97L256.32 425.21L257.25 424.49L258.22 423.83L259.21 423.2L260.23 422.63L261.28 422.1L262.35 421.62L263.45 421.19L264.57 420.81L265.71 420.48L266.87 420.19L268.05 419.96L269.25 419.78L270.47 419.65L271.7 419.57L272.95 419.54L274.2 419.57L275.43 419.65Z" id="b3S2Dk6rEY"></path><path d="M523.9 421.2L525.27 421.32L526.6 421.48L527.91 421.69L529.19 421.95L530.44 422.25L531.66 422.6L532.85 422.99L534 423.43L535.12 423.91L536.21 424.44L537.27 425.01L538.28 425.63L539.27 426.29L540.21 426.99L541.12 427.74L541.98 428.53L542.81 429.36L543.6 430.24L544.34 431.15L545.05 432.11L545.71 433.12L546.33 434.16L546.9 435.25L547.43 436.37L547.91 437.54L548.34 438.75L548.73 440L549.06 441.28L549.35 442.61L549.59 443.98L549.77 445.39L549.91 446.84L549.99 448.32L550.01 449.85L549.99 451.37L549.91 452.86L549.77 454.3L549.59 455.71L549.35 457.08L549.06 458.41L548.73 459.7L548.34 460.95L547.91 462.16L547.43 463.32L546.9 464.45L546.33 465.53L545.71 466.58L545.05 467.58L544.34 468.54L543.6 469.46L542.81 470.34L541.98 471.17L541.12 471.96L540.21 472.71L539.27 473.41L538.28 474.07L537.27 474.69L536.21 475.26L535.12 475.79L534 476.27L532.85 476.71L531.66 477.1L530.44 477.45L529.19 477.75L527.91 478.01L526.6 478.22L525.27 478.38L523.9 478.5L522.51 478.57L521.09 478.59L503.95 478.59L503.95 421.1L521.09 421.1L522.51 421.13L523.9 421.2Z" id="e6gJ5fbbVI"></path><path d="M0 634.21L0 265.93L682 265.93L682 634.21L0 634.21ZM140.88 386.6L138.23 386.77L135.66 387L133.16 387.3L130.73 387.66L128.36 388.08L126.07 388.56L123.85 389.09L121.7 389.69L119.62 390.34L117.61 391.04L115.67 391.8L113.8 392.6L112 393.46L110.27 394.37L108.61 395.32L107.02 396.32L105.5 397.37L104.05 398.46L102.68 399.59L101.37 400.76L100.13 401.97L98.97 403.22L97.87 404.51L96.85 405.83L95.89 407.19L95.01 408.58L94.2 410L93.45 411.45L92.78 412.93L92.18 414.44L91.65 415.98L91.19 417.53L90.8 419.12L90.48 420.72L90.24 422.35L90.06 423.99L89.95 425.66L89.92 427.34L90.04 430.62L90.4 433.7L90.99 436.57L91.79 439.26L92.8 441.76L93.99 444.08L95.36 446.24L96.89 448.24L98.57 450.08L100.39 451.78L102.33 453.35L104.39 454.79L106.55 456.1L108.8 457.31L111.12 458.41L113.51 459.42L115.94 460.34L118.42 461.17L120.92 461.94L123.43 462.64L125.94 463.29L128.44 463.88L130.91 464.44L133.34 464.96L135.73 465.47L138.05 465.95L140.3 466.43L142.46 466.9L144.52 467.38L146.46 467.88L148.28 468.4L149.97 468.96L151.5 469.55L152.86 470.19L154.06 470.89L155.06 471.65L155.86 472.48L156.45 473.39L156.81 474.39L156.94 475.48L156.93 475.79L156.9 476.09L156.86 476.38L156.81 476.67L156.73 476.95L156.64 477.23L156.54 477.5L156.41 477.76L156.27 478.01L156.1 478.26L155.92 478.5L155.72 478.73L155.5 478.96L155.27 479.18L155.01 479.39L154.73 479.59L154.43 479.79L154.11 479.97L153.77 480.16L153.41 480.33L153.02 480.49L152.62 480.65L152.19 480.8L151.73 480.94L151.26 481.07L150.76 481.2L150.24 481.32L149.7 481.42L149.13 481.52L148.53 481.62L147.91 481.7L147.27 481.77L146.6 481.84L145.9 481.9L145.18 481.95L144.44 481.99L143.66 482.02L142.86 482.04L142.03 482.06L141.17 482.06L140.17 482.05L139.16 482.03L138.15 481.99L137.12 481.93L136.1 481.86L135.07 481.77L134.03 481.67L132.99 481.56L131.95 481.42L130.91 481.28L129.86 481.12L128.82 480.94L127.77 480.75L126.72 480.55L125.67 480.33L124.63 480.1L123.58 479.86L122.54 479.6L121.5 479.33L120.46 479.05L119.43 478.76L118.4 478.45L117.37 478.13L116.35 477.8L115.34 477.45L114.33 477.1L113.33 476.73L112.33 476.35L111.35 475.96L110.37 475.56L109.4 475.15L108.44 474.72L107.49 474.29L106.55 473.85L105.63 473.39L104.71 472.93L103.81 472.45L102.91 471.97L102.04 471.48L101.17 470.98L88.01 500.76L88.94 501.31L89.89 501.86L90.88 502.39L91.89 502.92L92.93 503.43L94 503.94L95.09 504.43L96.21 504.92L97.36 505.39L98.53 505.85L99.72 506.3L100.94 506.74L102.17 507.16L103.43 507.58L104.71 507.98L106 508.37L107.32 508.74L108.65 509.1L110 509.45L111.37 509.79L112.75 510.11L114.14 510.41L115.55 510.71L116.98 510.98L118.41 511.25L119.86 511.49L121.31 511.73L122.78 511.94L124.25 512.14L125.73 512.33L127.22 512.49L128.72 512.65L130.22 512.78L131.73 512.9L133.24 513L134.76 513.08L136.27 513.14L137.79 513.19L139.31 513.22L140.83 513.23L143.61 513.19L146.33 513.09L148.97 512.92L151.54 512.68L154.05 512.38L156.48 512.02L158.84 511.59L161.13 511.11L163.35 510.56L165.5 509.96L167.59 509.3L169.6 508.59L171.54 507.82L173.41 507.01L175.21 506.14L176.94 505.23L178.59 504.26L180.18 503.26L181.7 502.2L183.15 501.11L184.52 499.97L185.83 498.79L187.07 497.58L188.23 496.32L189.33 495.03L190.35 493.71L191.31 492.35L192.19 490.96L193 489.54L193.75 488.1L194.42 486.62L195.02 485.12L195.55 483.6L196.01 482.05L196.4 480.48L196.72 478.89L196.96 477.28L197.14 475.66L197.25 474.02L197.28 472.36L197.16 469.12L196.8 466.07L196.21 463.23L195.4 460.58L194.4 458.11L193.21 455.81L191.84 453.68L190.31 451.7L188.63 449.88L186.81 448.2L184.86 446.65L182.81 445.23L180.65 443.93L178.4 442.74L176.08 441.66L173.69 440.67L171.26 439.77L168.78 438.94L166.28 438.19L163.77 437.51L161.26 436.88L158.76 436.3L156.29 435.76L153.85 435.25L151.47 434.77L149.15 434.31L146.9 433.85L144.74 433.4L142.68 432.94L140.73 432.47L138.91 431.98L137.23 431.45L135.7 430.89L134.33 430.28L133.14 429.62L132.14 428.9L131.34 428.11L130.75 427.25L130.39 426.3L130.26 425.26L130.27 424.95L130.29 424.64L130.33 424.33L130.38 424.03L130.45 423.74L130.54 423.44L130.64 423.15L130.76 422.87L130.89 422.59L131.05 422.31L131.22 422.04L131.41 421.78L131.62 421.52L131.85 421.27L132.1 421.02L132.37 420.78L132.66 420.55L132.97 420.32L133.31 420.1L133.66 419.89L134.04 419.69L134.44 419.49L134.87 419.3L135.31 419.12L135.78 418.95L136.28 418.79L136.8 418.64L137.35 418.5L137.92 418.37L138.52 418.24L139.14 418.13L139.8 418.03L140.47 417.94L141.18 417.86L141.92 417.8L142.68 417.74L143.47 417.7L144.29 417.66L145.14 417.64L146.02 417.64L146.82 417.64L147.61 417.66L148.41 417.69L149.21 417.73L150.02 417.78L150.82 417.84L151.63 417.91L152.44 417.99L153.26 418.09L154.08 418.19L154.9 418.31L155.72 418.44L156.54 418.58L157.37 418.73L158.2 418.89L159.03 419.06L159.87 419.25L160.7 419.44L161.54 419.65L162.39 419.87L163.23 420.1L164.08 420.34L164.93 420.59L165.79 420.86L166.64 421.13L167.5 421.42L168.36 421.72L169.22 422.02L170.09 422.35L170.96 422.68L171.83 423.02L172.71 423.38L173.58 423.75L174.46 424.12L175.34 424.51L176.23 424.92L177.12 425.33L178.01 425.75L178.9 426.19L179.79 426.64L192.09 397.03L191.13 396.5L190.16 395.99L189.18 395.49L188.18 395.01L187.16 394.54L186.13 394.08L185.09 393.64L184.04 393.2L182.98 392.79L181.9 392.38L180.81 391.99L179.71 391.62L178.61 391.25L177.49 390.9L176.36 390.57L175.22 390.24L174.08 389.93L172.92 389.64L171.76 389.36L170.59 389.09L169.42 388.83L168.24 388.59L167.05 388.36L165.85 388.14L164.66 387.94L163.45 387.75L162.25 387.57L161.04 387.41L159.82 387.26L158.6 387.12L157.38 386.99L156.16 386.88L154.94 386.79L153.72 386.7L152.49 386.63L151.27 386.57L150.04 386.52L148.82 386.49L147.59 386.47L146.37 386.47L143.59 386.5L140.88 386.6ZM267.11 386.66L264.25 386.91L261.44 387.25L258.68 387.68L255.96 388.21L253.29 388.83L250.68 389.53L248.11 390.33L245.61 391.21L243.16 392.17L240.77 393.22L238.43 394.35L236.16 395.55L233.96 396.84L231.82 398.2L229.74 399.64L227.74 401.15L225.81 402.74L223.95 404.39L222.16 406.11L220.45 407.9L218.81 409.76L217.26 411.68L215.78 413.66L214.39 415.7L213.08 417.81L211.86 419.97L210.73 422.18L209.69 424.46L208.73 426.78L207.87 429.16L207.11 431.59L206.44 434.06L205.87 436.58L205.4 439.15L205.03 441.76L204.76 444.42L204.6 447.11L204.55 449.85L204.6 452.58L204.76 455.28L205.03 457.93L205.4 460.54L205.87 463.11L206.44 465.63L207.11 468.11L207.87 470.54L208.73 472.91L209.69 475.24L210.73 477.51L211.86 479.73L213.08 481.89L214.39 483.99L215.78 486.03L217.26 488.02L218.81 489.94L220.45 491.79L222.16 493.58L223.95 495.3L225.81 496.96L227.74 498.54L229.74 500.05L231.82 501.49L233.96 502.85L236.16 504.14L238.43 505.35L240.77 506.48L243.16 507.52L245.61 508.49L248.11 509.37L250.68 510.16L253.29 510.87L255.96 511.48L258.68 512.01L261.44 512.44L264.25 512.78L267.11 513.03L270.01 513.18L272.95 513.23L275.89 513.18L278.79 513.03L281.65 512.78L284.46 512.44L287.23 512.01L289.94 511.48L292.61 510.87L295.23 510.16L297.79 509.37L300.3 508.49L302.75 507.52L305.14 506.48L307.47 505.35L309.74 504.14L311.95 502.85L314.09 501.49L316.16 500.05L318.16 498.54L320.1 496.96L321.96 495.3L323.75 493.58L325.46 491.79L327.09 489.94L328.65 488.02L330.12 486.03L331.51 483.99L332.82 481.89L334.04 479.73L335.17 477.51L336.22 475.24L337.17 472.91L338.03 470.54L338.8 468.11L339.46 465.63L340.03 463.11L340.5 460.54L340.87 457.93L341.14 455.28L341.3 452.58L341.35 449.85L341.3 447.11L341.14 444.42L340.87 441.76L340.5 439.15L340.03 436.58L339.46 434.06L338.8 431.59L338.03 429.16L337.17 426.78L336.22 424.46L335.17 422.18L334.04 419.97L332.82 417.81L331.51 415.7L330.12 413.66L328.65 411.68L327.09 409.76L325.46 407.9L323.75 406.11L321.96 404.39L320.1 402.74L318.16 401.15L316.16 399.64L314.09 398.2L311.95 396.84L309.74 395.55L307.47 394.35L305.14 393.22L302.75 392.17L300.3 391.21L297.79 390.33L295.23 389.53L292.61 388.83L289.94 388.21L287.23 387.68L284.46 387.25L281.65 386.91L278.79 386.66L275.89 386.52L272.95 386.47L270.01 386.52L267.11 386.66ZM356.24 510.46L451.83 510.46L451.83 478.77L397.11 478.77L397.11 389.24L356.24 389.24L356.24 510.46ZM463.08 510.46L522.83 510.46L525.84 510.42L528.81 510.29L531.73 510.07L534.59 509.78L537.4 509.4L540.16 508.93L542.86 508.39L545.5 507.76L548.09 507.06L550.61 506.27L553.07 505.41L555.47 504.47L557.81 503.45L560.08 502.36L562.28 501.19L564.41 499.95L566.47 498.63L568.46 497.24L570.38 495.78L572.22 494.24L573.99 492.64L575.68 490.97L577.29 489.23L578.82 487.42L580.27 485.54L581.64 483.59L582.92 481.59L584.11 479.51L585.22 477.37L586.24 475.17L587.17 472.91L588.01 470.58L588.75 468.19L589.4 465.75L589.95 463.24L590.41 460.68L590.77 458.05L591.02 455.37L591.18 452.64L591.23 449.85L591.18 447.06L591.02 444.32L590.77 441.64L590.41 439.02L589.95 436.45L589.4 433.95L588.75 431.5L588.01 429.11L587.17 426.79L586.24 424.52L585.22 422.32L584.11 420.18L582.92 418.11L581.64 416.1L580.27 414.16L578.82 412.28L577.29 410.47L575.68 408.73L573.99 407.05L572.22 405.45L570.38 403.92L568.46 402.46L566.47 401.07L564.41 399.75L562.28 398.51L560.08 397.34L557.81 396.25L555.47 395.23L553.07 394.29L550.61 393.42L548.09 392.64L545.5 391.93L542.86 391.31L540.16 390.77L537.4 390.3L534.59 389.92L531.73 389.62L528.81 389.41L525.84 389.28L522.83 389.24L463.08 389.24L463.08 510.46Z" id="adbsJF0U"></path></defs><g><g><g><use xlink:href="#a1hPVPbc1p" opacity="1" fill="#c90808" fill-opacity="1"></use><g><use xlink:href="#a1hPVPbc1p" opacity="1" fill-opacity="0" stroke="#000000" stroke-width="1" stroke-opacity="0"></use></g></g><g><use xlink:href="#b3S2Dk6rEY" opacity="1" fill="#c90808" fill-opacity="1"></use><g><use xlink:href="#b3S2Dk6rEY" opacity="1" fill-opacity="0" stroke="#000000" stroke-width="1" stroke-opacity="0"></use></g></g><g><use xlink:href="#e6gJ5fbbVI" opacity="1" fill="#c90808" fill-opacity="1"></use><g><use xlink:href="#e6gJ5fbbVI" opacity="1" fill-opacity="0" stroke="#000000" stroke-width="1" stroke-opacity="0"></use></g></g><g><use xlink:href="#adbsJF0U" opacity="1" fill="#c90808" fill-opacity="1"></use><g><use xlink:href="#adbsJF0U" opacity="1" fill-opacity="0" stroke="#000000" stroke-width="1" stroke-opacity="0"></use></g></g></g></g></svg>